<?xml version="1.0" encoding="UTF-8"?>
<svg xmlns="http://www.w3.org/2000/svg" xmlns:xlink="http://www.w3.org/1999/xlink" version="1.1" width="3115px" height="836px" style="shape-rendering:geometricPrecision; text-rendering:geometricPrecision; image-rendering:optimizeQuality; fill-rule:evenodd; clip-rule:evenodd">
  <g>
    <path d="M 2186.5,-0.5 C 2190.5,-0.5 2194.5,-0.5 2198.5,-0.5C 2228.46,3.56787 2249.29,19.5679 2261,47.5C 2270.98,80.42 2263.15,108.253 2237.5,131C 2205.47,152.301 2174.13,151.301 2143.5,128C 2120.22,104.056 2114.06,76.2229 2125,44.5C 2137.24,18.1386 2157.74,3.13864 2186.5,-0.5 Z"></path>
  </g>
  <g>
    <path d="M 2694.5,835.5 C 2686.17,835.5 2677.83,835.5 2669.5,835.5C 2628.73,834.244 2589.4,825.744 2551.5,810C 2539.74,801.078 2535.24,789.244 2538,774.5C 2540.87,757.144 2543.87,739.81 2547,722.5C 2554.25,700.122 2569.41,691.622 2592.5,697C 2637.64,719.686 2684.97,726.02 2734.5,716C 2758.93,709.226 2777.1,694.726 2789,672.5C 2796.37,658.936 2802.2,644.769 2806.5,630C 2754.94,655.416 2701.61,659.416 2646.5,642C 2604.77,625.929 2580.27,595.762 2573,551.5C 2570.04,529.807 2570.37,508.14 2574,486.5C 2584.11,427.809 2594.27,369.142 2604.5,310.5C 2552.78,309.84 2501.28,310.507 2450,312.5C 2438.33,378.5 2426.67,444.5 2415,510.5C 2413.7,517.126 2413.36,523.792 2414,530.5C 2414.5,532.333 2415.67,533.5 2417.5,534C 2433.38,535.354 2448.71,533.021 2463.5,527C 2473.65,521.173 2484.48,517.34 2496,515.5C 2508.18,515.923 2517.52,521.257 2524,531.5C 2529.33,543.5 2534.67,555.5 2540,567.5C 2543.76,584.481 2538.26,597.647 2523.5,607C 2473.85,639.663 2419.51,652.329 2360.5,645C 2314.39,637.229 2289.56,610.063 2286,563.5C 2285.12,546.063 2286.12,528.73 2289,511.5C 2300.64,444.784 2312.48,378.117 2324.5,311.5C 2310.51,310.667 2296.51,310.167 2282.5,310C 2268.67,306.833 2261.33,298.167 2260.5,284C 2263.18,264.755 2266.35,245.588 2270,226.5C 2274.57,212.597 2284.07,204.43 2298.5,202C 2313.5,201.5 2328.5,201.333 2343.5,201.5C 2348,175.18 2352.5,148.846 2357,122.5C 2360.45,108.756 2368.95,99.9227 2382.5,96C 2395.95,94.8699 2409.45,94.3699 2423,94.5C 2435.17,94.6667 2447.33,94.8333 2459.5,95C 2471.33,97.5 2478.5,104.667 2481,116.5C 2481.67,122.167 2481.67,127.833 2481,133.5C 2477.06,156.161 2473.22,178.827 2469.5,201.5C 2535.17,201.415 2600.84,201.248 2666.5,201C 2702.95,202.474 2726.12,220.641 2736,255.5C 2737.53,267.457 2737.87,279.457 2737,291.5C 2726.8,349.522 2716.46,407.522 2706,465.5C 2702.55,479.725 2701.88,494.058 2704,508.5C 2708.25,527.746 2720.25,536.746 2740,535.5C 2765.65,535.175 2786.65,525.175 2803,505.5C 2821.81,481.209 2834.14,453.875 2840,423.5C 2851.77,357.853 2863.44,292.186 2875,226.5C 2878.37,211.8 2887.54,203.3 2902.5,201C 2927.17,200.333 2951.83,200.333 2976.5,201C 2988.87,203.036 2996.37,210.203 2999,222.5C 2999.67,228.5 2999.67,234.5 2999,240.5C 2978,359.167 2957,477.833 2936,596.5C 2928.07,646.289 2911.07,692.622 2885,735.5C 2847.91,790.826 2796.07,822.993 2729.5,832C 2717.71,833.446 2706.04,834.613 2694.5,835.5 Z"></path>
  </g>
  <g>
    <path d="M 3114.5,146.5 C 3114.5,147.5 3114.5,148.5 3114.5,149.5C 3112.02,177.645 3096.69,193.312 3068.5,196.5C 3039.49,193.324 3024.49,177.157 3023.5,148C 3024.37,118.632 3039.37,102.799 3068.5,100.5C 3088,100.83 3101.83,109.83 3110,127.5C 3112.32,133.785 3113.82,140.118 3114.5,146.5 Z M 3064.5,108.5 C 3089.78,109.618 3103.45,122.784 3105.5,148C 3103.99,171.338 3091.66,184.504 3068.5,187.5C 3045.37,184.532 3033.03,171.365 3031.5,148C 3032.63,126.388 3043.63,113.222 3064.5,108.5 Z M 3059.5,128.5 C 3065.64,128.027 3071.47,129.027 3077,131.5C 3079.54,136.097 3078.71,139.93 3074.5,143C 3069.58,144.25 3064.58,144.75 3059.5,144.5C 3059.5,139.167 3059.5,133.833 3059.5,128.5 Z"></path>
  </g>
  <g>
    <path d="M 3049.5,119.5 C 3057.17,119.334 3064.84,119.5 3072.5,120C 3085.37,121.563 3090.54,128.73 3088,141.5C 3086.36,143.977 3084.52,146.31 3082.5,148.5C 3085.07,150.642 3086.91,153.308 3088,156.5C 3088.3,162.533 3088.8,168.533 3089.5,174.5C 3085.89,174.789 3082.39,174.456 3079,173.5C 3082.36,157.026 3075.86,150.359 3059.5,153.5C 3059.5,160.5 3059.5,167.5 3059.5,174.5C 3056.17,174.5 3052.83,174.5 3049.5,174.5C 3049.5,156.167 3049.5,137.833 3049.5,119.5 Z M 3059.5,128.5 C 3059.5,133.833 3059.5,139.167 3059.5,144.5C 3064.58,144.75 3069.58,144.25 3074.5,143C 3078.71,139.93 3079.54,136.097 3077,131.5C 3071.47,129.027 3065.64,128.027 3059.5,128.5 Z"></path>
  </g>
  <g>
    <path d="M -0.5,332.5 C -0.5,326.833 -0.5,321.167 -0.5,315.5C 2.44667,298.178 5.94667,280.845 10,263.5C 14.7761,252.029 23.2761,245.196 35.5,243C 61.5,242.333 87.5,242.333 113.5,243C 125.277,245.779 133.777,252.612 139,263.5C 177.765,235.234 220.932,217.067 268.5,209C 300.685,204.724 332.018,208.058 362.5,219C 381.514,226.749 397.014,238.916 409,255.5C 439.617,228.278 475.45,212.445 516.5,208C 545.252,205.573 573.586,207.906 601.5,215C 646.65,229.091 672.817,259.591 680,306.5C 682.11,325.206 681.776,343.872 679,362.5C 668.006,427.465 656.506,492.299 644.5,557C 673.172,557.833 701.839,557.667 730.5,556.5C 718.479,522.109 714.645,486.776 719,450.5C 725.492,376.248 755.658,313.748 809.5,263C 863.284,218.37 925.284,199.037 995.5,205C 1044.33,207.171 1084.83,226.337 1117,262.5C 1134.84,285.529 1146.17,311.529 1151,340.5C 1153.09,355.763 1154.42,371.096 1155,386.5C 1177.09,312.754 1222.59,258.921 1291.5,225C 1324.36,210.871 1358.69,203.871 1394.5,204C 1489.83,203.333 1585.17,203.333 1680.5,204C 1711.3,206.314 1731.47,222.147 1741,251.5C 1744.78,261.607 1747.78,271.941 1750,282.5C 1760.41,340.557 1771.08,398.557 1782,456.5C 1829.67,375.167 1877.33,293.833 1925,212.5C 1930.33,206.845 1936.83,203.345 1944.5,202C 2019.5,201.333 2094.5,201.333 2169.5,202C 2204.08,206.585 2224.25,226.085 2230,260.5C 2230.84,272.872 2230.51,285.205 2229,297.5C 2215.17,374.125 2201.67,450.791 2188.5,527.5C 2205.87,519.631 2219.7,523.631 2230,539.5C 2234.67,550.167 2239.33,560.833 2244,571.5C 2249.2,586.156 2246.04,598.656 2234.5,609C 2206.18,629.99 2174.51,642.99 2139.5,648C 2078.78,650.275 2051.28,621.108 2057,560.5C 2071.3,477.059 2086.13,393.725 2101.5,310.5C 2067.5,309.167 2033.5,309.167 1999.5,310.5C 1936.75,415.001 1874.25,519.668 1812,624.5C 1805.11,632.737 1796.61,638.57 1786.5,642C 1757.78,642.967 1729.12,642.634 1700.5,641C 1691.97,637.808 1686.14,631.974 1683,623.5C 1661.97,517.365 1640.31,411.365 1618,305.5C 1600.23,304.175 1582.4,304.175 1564.5,305.5C 1575.13,334.908 1579.3,365.241 1577,396.5C 1573.42,454.896 1555.42,508.229 1523,556.5C 1481.09,613.335 1424.92,646.501 1354.5,656C 1314.05,661.289 1274.72,656.956 1236.5,643C 1184.59,618.747 1153.76,578.247 1144,521.5C 1141.77,505.244 1140.43,488.91 1140,472.5C 1122.43,534.876 1086.93,584.042 1033.5,620C 996.163,643.171 955.496,655.837 911.5,658C 811.664,658.231 711.831,658.731 612,659.5C 599.143,659.515 586.31,659.015 573.5,658C 531.577,651.043 511.244,626.21 512.5,583.5C 512.549,575.802 513.049,568.135 514,560.5C 524.666,499.168 535.333,437.835 546,376.5C 548.537,362.97 547.87,349.637 544,336.5C 540.189,328.173 533.689,323.673 524.5,323C 490.625,320.186 465.125,333.353 448,362.5C 434.647,385.888 425.647,410.888 421,437.5C 409.667,501.5 398.333,565.5 387,629.5C 383.064,644.1 373.564,652.267 358.5,654C 332.833,654.667 307.167,654.667 281.5,654C 269.592,652.095 262.092,645.262 259,633.5C 258.337,630.023 257.837,626.523 257.5,623C 270.73,546.455 284.23,469.955 298,393.5C 301.434,377.927 302.101,362.26 300,346.5C 297.138,329.642 287.138,321.642 270,322.5C 243.222,323.385 222.222,334.718 207,356.5C 193.231,377.713 183.565,400.713 178,425.5C 165.743,492.787 153.743,560.12 142,627.5C 139.044,642.789 129.878,651.623 114.5,654C 88.5,654.667 62.5,654.667 36.5,654C 25.6667,651.167 18.8333,644.333 16,633.5C 15.3371,630.023 14.8371,626.523 14.5,623C 30.3397,532.461 46.3397,441.961 62.5,351.5C 47.7832,351.913 33.1165,351.413 18.5,350C 8.75346,347.749 2.42013,341.916 -0.5,332.5 Z M 950.5,314.5 C 972.056,312.403 990.222,319.069 1005,334.5C 1017.74,353.281 1023.91,374.114 1023.5,397C 1022.55,438.531 1010.05,476.031 986,509.5C 957.6,544.967 922.1,554.8 879.5,539C 865.268,529.065 856.101,515.565 852,498.5C 844.042,453.943 850.708,411.61 872,371.5C 880.954,355.212 892.788,341.378 907.5,330C 920.591,321.138 934.924,315.972 950.5,314.5 Z M 1369.5,314.5 C 1407.39,310.174 1431.56,326.174 1442,362.5C 1451.66,416.202 1440.66,465.202 1409,509.5C 1382.31,542.964 1348.48,553.464 1307.5,541C 1294.16,533.994 1284.66,523.494 1279,509.5C 1271.91,489.75 1269.58,469.416 1272,448.5C 1275.47,409.388 1289.47,374.722 1314,344.5C 1329.08,328.044 1347.58,318.044 1369.5,314.5 Z"></path>
  </g>
</svg>
